<?xml version="1.0" standalone="no"?>
<!DOCTYPE svg PUBLIC "-//W3C//DTD SVG 20010904//EN"
 "http://www.w3.org/TR/2001/REC-SVG-20010904/DTD/svg10.dtd">
<svg version="1.0" xmlns="http://www.w3.org/2000/svg"
 width="384.000000pt" height="384.000000pt" viewBox="0 0 384.000000 384.000000"
 preserveAspectRatio="xMidYMid meet">
<metadata>
Created by potrace 1.14, written by Peter Selinger 2001-2017
</metadata>
<g transform="translate(0.000000,384.000000) scale(0.100000,-0.100000)"
fill="#000000" stroke="none">
<path d="M1675 3824 c-119 -18 -145 -23 -175 -29 -14 -3 -34 -8 -46 -10 -12
-3 -40 -11 -63 -20 -23 -8 -43 -14 -46 -14 -3 -1 -21 -7 -41 -16 -19 -8 -38
-14 -42 -13 -36 8 -457 -219 -470 -254 -2 -4 -8 -8 -14 -8 -15 0 -106 -78
-209 -180 -77 -75 -186 -204 -229 -269 -8 -13 -23 -34 -32 -46 -10 -13 -18
-26 -18 -30 0 -4 -8 -19 -19 -33 -23 -34 -83 -151 -112 -217 -33 -80 -89 -235
-83 -235 2 0 0 -8 -5 -17 -5 -10 -11 -32 -14 -50 -3 -17 -8 -36 -11 -42 -4 -6
-9 -34 -12 -63 -3 -29 -8 -56 -10 -59 -25 -41 -24 -568 1 -610 2 -3 7 -28 11
-55 3 -27 11 -58 17 -69 6 -11 9 -21 8 -23 -9 -9 51 -200 90 -287 12 -27 23
-52 24 -55 1 -3 16 -34 34 -70 138 -280 391 -561 661 -736 97 -63 100 -65 198
-114 75 -37 171 -78 197 -85 6 -1 19 -5 30 -9 55 -21 157 -50 205 -60 14 -2
48 -9 76 -15 28 -5 73 -13 100 -17 67 -10 397 -11 462 -1 28 4 69 9 90 12 20
3 48 8 62 12 14 3 34 7 45 9 11 1 47 10 80 19 33 10 65 18 70 20 6 1 17 5 25
8 8 4 51 20 95 36 76 27 118 46 210 93 22 12 50 26 62 32 13 6 23 14 23 19 0
4 5 7 11 7 12 0 113 67 193 129 80 61 259 240 323 321 109 140 214 322 278
483 15 38 28 74 29 80 2 7 8 24 14 40 7 15 14 38 17 50 2 12 11 49 20 82 18
72 21 87 43 240 13 92 5 463 -11 515 -2 8 -10 44 -17 80 -7 36 -13 70 -15 75
-7 31 -17 72 -21 83 -2 7 -4 14 -4 17 -1 11 -54 152 -73 194 -11 25 -21 48
-22 51 -19 60 -128 241 -209 350 -93 124 -359 390 -391 390 -3 0 -16 9 -28 21
-12 11 -35 28 -52 36 -16 9 -32 19 -35 23 -3 4 -21 15 -40 25 -19 10 -45 26
-58 36 -13 10 -36 21 -52 24 -17 4 -30 11 -30 16 0 5 -6 9 -13 9 -7 0 -28 8
-47 19 -94 50 -346 127 -480 146 -25 3 -56 8 -70 11 -66 12 -400 11 -485 -2z"/>
</g>
</svg>
